<mxfile host="app.diagrams.net" modified="2024-06-19T19:46:59.422Z" agent="Mozilla/5.0 (Windows NT 10.0; Win64; x64) AppleWebKit/537.36 (KHTML, like Gecko) Chrome/125.0.0.0 Safari/537.36" etag="nUpJtfH6FTbEAcgrH6as" version="24.5.5" type="github">
  <diagram name="Page-1" id="VmiZNKJC3hlrCQ9vHejB">
    <mxGraphModel dx="2669" dy="1674" grid="0" gridSize="10" guides="1" tooltips="1" connect="1" arrows="1" fold="1" page="0" pageScale="1" pageWidth="827" pageHeight="1169" math="0" shadow="0">
      <root>
        <mxCell id="0" />
        <mxCell id="1" parent="0" />
        <mxCell id="EIdDX-q7qXnu96xB0HQ3-1" value="" style="html=1;jettySize=18;whiteSpace=wrap;fontSize=13;strokeOpacity=100;rounded=0;startArrow=none;endArrow=block;endFill=1;exitX=0.502;exitY=1.002;exitPerimeter=0;entryX=0.5;entryY=-0.01;entryPerimeter=0;lucidId=rJnMtH9KXpSx;" edge="1" parent="1" source="EIdDX-q7qXnu96xB0HQ3-10" target="EIdDX-q7qXnu96xB0HQ3-12">
          <mxGeometry width="100" height="100" relative="1" as="geometry">
            <Array as="points">
              <mxPoint x="879" y="27" />
              <mxPoint x="442" y="27" />
            </Array>
          </mxGeometry>
        </mxCell>
        <mxCell id="EIdDX-q7qXnu96xB0HQ3-2" value="" style="html=1;jettySize=18;whiteSpace=wrap;fontSize=13;strokeOpacity=100;rounded=0;startArrow=none;endArrow=block;endFill=1;exitX=0.502;exitY=1.002;exitPerimeter=0;entryX=0.5;entryY=-0.01;entryPerimeter=0;lucidId=rJnMr9n1DP0k;" edge="1" parent="1" source="EIdDX-q7qXnu96xB0HQ3-10" target="EIdDX-q7qXnu96xB0HQ3-14">
          <mxGeometry width="100" height="100" relative="1" as="geometry">
            <Array as="points">
              <mxPoint x="879" y="27" />
              <mxPoint x="658" y="27" />
            </Array>
          </mxGeometry>
        </mxCell>
        <mxCell id="EIdDX-q7qXnu96xB0HQ3-3" value="" style="html=1;jettySize=18;whiteSpace=wrap;fontSize=13;strokeOpacity=100;rounded=0;startArrow=none;endArrow=block;endFill=1;exitX=0.502;exitY=1.002;exitPerimeter=0;entryX=0.5;entryY=-0.01;entryPerimeter=0;lucidId=rJnMbp0RFXZZ;" edge="1" parent="1" source="EIdDX-q7qXnu96xB0HQ3-10" target="EIdDX-q7qXnu96xB0HQ3-16">
          <mxGeometry width="100" height="100" relative="1" as="geometry">
            <Array as="points">
              <mxPoint x="879" y="27" />
              <mxPoint x="766" y="27" />
            </Array>
          </mxGeometry>
        </mxCell>
        <mxCell id="EIdDX-q7qXnu96xB0HQ3-4" value="" style="html=1;jettySize=18;whiteSpace=wrap;fontSize=13;strokeOpacity=100;rounded=0;startArrow=none;endArrow=block;endFill=1;exitX=0.502;exitY=1.002;exitPerimeter=0;entryX=0.5;entryY=-0.01;entryPerimeter=0;lucidId=rJnMKYugJ4I-;" edge="1" parent="1" source="EIdDX-q7qXnu96xB0HQ3-10" target="EIdDX-q7qXnu96xB0HQ3-18">
          <mxGeometry width="100" height="100" relative="1" as="geometry">
            <Array as="points">
              <mxPoint x="879" y="27" />
              <mxPoint x="880" y="27" />
            </Array>
          </mxGeometry>
        </mxCell>
        <mxCell id="EIdDX-q7qXnu96xB0HQ3-5" value="" style="html=1;jettySize=18;whiteSpace=wrap;fontSize=13;strokeOpacity=100;rounded=0;startArrow=none;endArrow=block;endFill=1;exitX=0.502;exitY=1.002;exitPerimeter=0;entryX=0.51;entryY=-0.01;entryPerimeter=0;lucidId=rJnM9jMskWQF;" edge="1" parent="1" source="EIdDX-q7qXnu96xB0HQ3-10" target="EIdDX-q7qXnu96xB0HQ3-20">
          <mxGeometry width="100" height="100" relative="1" as="geometry">
            <Array as="points">
              <mxPoint x="879" y="27" />
              <mxPoint x="981" y="27" />
            </Array>
          </mxGeometry>
        </mxCell>
        <mxCell id="EIdDX-q7qXnu96xB0HQ3-6" value="" style="html=1;jettySize=18;whiteSpace=wrap;fontSize=13;strokeOpacity=100;rounded=0;startArrow=none;endArrow=block;endFill=1;exitX=0.502;exitY=1.002;exitPerimeter=0;entryX=0.5;entryY=-0.01;entryPerimeter=0;lucidId=rJnMpQUurfVA;" edge="1" parent="1" source="EIdDX-q7qXnu96xB0HQ3-10" target="EIdDX-q7qXnu96xB0HQ3-22">
          <mxGeometry width="100" height="100" relative="1" as="geometry">
            <Array as="points">
              <mxPoint x="879" y="27" />
              <mxPoint x="1078" y="27" />
            </Array>
          </mxGeometry>
        </mxCell>
        <mxCell id="EIdDX-q7qXnu96xB0HQ3-7" value="" style="html=1;jettySize=18;whiteSpace=wrap;fontSize=13;strokeOpacity=100;rounded=0;startArrow=none;endArrow=block;endFill=1;exitX=0.502;exitY=1.002;exitPerimeter=0;entryX=0.5;entryY=-0.01;entryPerimeter=0;lucidId=rJnMvgd6B4Ud;" edge="1" parent="1" source="EIdDX-q7qXnu96xB0HQ3-10" target="EIdDX-q7qXnu96xB0HQ3-24">
          <mxGeometry width="100" height="100" relative="1" as="geometry">
            <Array as="points">
              <mxPoint x="879" y="27" />
              <mxPoint x="1294" y="27" />
            </Array>
          </mxGeometry>
        </mxCell>
        <mxCell id="EIdDX-q7qXnu96xB0HQ3-8" value="" style="html=1;jettySize=18;whiteSpace=wrap;fontSize=13;strokeOpacity=100;rounded=0;startArrow=none;endArrow=block;endFill=1;exitX=0.502;exitY=1.002;exitPerimeter=0;entryX=0.5;entryY=-0.01;entryPerimeter=0;lucidId=rJnMabWtGPqQ;" edge="1" parent="1" source="EIdDX-q7qXnu96xB0HQ3-10" target="EIdDX-q7qXnu96xB0HQ3-26">
          <mxGeometry width="100" height="100" relative="1" as="geometry">
            <Array as="points">
              <mxPoint x="879" y="27" />
              <mxPoint x="1186" y="27" />
            </Array>
          </mxGeometry>
        </mxCell>
        <mxCell id="EIdDX-q7qXnu96xB0HQ3-9" value="" style="html=1;jettySize=18;whiteSpace=wrap;fontSize=13;strokeOpacity=100;rounded=0;startArrow=none;endArrow=block;endFill=1;exitX=0.502;exitY=1.002;exitPerimeter=0;entryX=0.5;entryY=-0.01;entryPerimeter=0;lucidId=rJnMwFZggwq1;" edge="1" parent="1" source="EIdDX-q7qXnu96xB0HQ3-10" target="EIdDX-q7qXnu96xB0HQ3-28">
          <mxGeometry width="100" height="100" relative="1" as="geometry">
            <Array as="points">
              <mxPoint x="879" y="27" />
              <mxPoint x="550" y="27" />
            </Array>
          </mxGeometry>
        </mxCell>
        <mxCell id="EIdDX-q7qXnu96xB0HQ3-10" value="SMART LINK" style="html=1;overflow=block;blockSpacing=1;whiteSpace=wrap;fontSize=42.8;fontFamily=Tinos;spacing=0;strokeColor=#b85450;strokeOpacity=100;fillOpacity=100;rounded=1;absoluteArcSize=1;arcSize=16;shadow=1;fillColor=#f8cecc;lucidId=rJnMZWsZTVh1;" vertex="1" parent="1">
          <mxGeometry x="713" y="-214" width="330" height="173" as="geometry" />
        </mxCell>
        <mxCell id="EIdDX-q7qXnu96xB0HQ3-11" value="" style="html=1;jettySize=18;whiteSpace=wrap;fontSize=13;strokeOpacity=100;rounded=0;startArrow=none;endArrow=block;endFill=1;exitX=0.5;exitY=1.01;exitPerimeter=0;entryX=0.5;entryY=-0.014;entryPerimeter=0;lucidId=rJnM6UqDkSY7;" edge="1" parent="1" source="EIdDX-q7qXnu96xB0HQ3-12" target="EIdDX-q7qXnu96xB0HQ3-42">
          <mxGeometry width="100" height="100" relative="1" as="geometry">
            <Array as="points">
              <mxPoint x="442" y="184" />
              <mxPoint x="316" y="184" />
            </Array>
          </mxGeometry>
        </mxCell>
        <mxCell id="EIdDX-q7qXnu96xB0HQ3-12" value="NFS" style="html=1;overflow=block;blockSpacing=1;whiteSpace=wrap;shape=datastore;fontSize=14.3;fontFamily=Arimo;spacing=0;strokeColor=#6c8ebf;strokeOpacity=100;fillOpacity=100;rounded=1;absoluteArcSize=1;arcSize=16;shadow=1;fillColor=#dae8fc;lucidId=rJnMWDPyCvDj;" vertex="1" parent="1">
          <mxGeometry x="412" y="94" width="60" height="48" as="geometry" />
        </mxCell>
        <mxCell id="EIdDX-q7qXnu96xB0HQ3-13" value="" style="html=1;jettySize=18;whiteSpace=wrap;fontSize=13;strokeOpacity=100;rounded=0;startArrow=none;endArrow=block;endFill=1;exitX=0.5;exitY=1.01;exitPerimeter=0;entryX=1.002;entryY=0.5;entryPerimeter=0;lucidId=rJnMKWrm9bPr;" edge="1" parent="1" source="EIdDX-q7qXnu96xB0HQ3-14" target="EIdDX-q7qXnu96xB0HQ3-32">
          <mxGeometry width="100" height="100" relative="1" as="geometry">
            <Array as="points">
              <mxPoint x="658" y="364" />
            </Array>
          </mxGeometry>
        </mxCell>
        <mxCell id="EIdDX-q7qXnu96xB0HQ3-14" value="CIF" style="html=1;overflow=block;blockSpacing=1;whiteSpace=wrap;shape=datastore;fontSize=14.3;fontFamily=Arimo;spacing=0;strokeColor=#d6b656;strokeOpacity=100;fillOpacity=100;rounded=1;absoluteArcSize=1;arcSize=16;shadow=1;fillColor=#fff2cc;lucidId=rJnMPYgmWglq;" vertex="1" parent="1">
          <mxGeometry x="628" y="94" width="60" height="48" as="geometry" />
        </mxCell>
        <mxCell id="EIdDX-q7qXnu96xB0HQ3-15" value="" style="html=1;jettySize=18;whiteSpace=wrap;fontSize=13;strokeOpacity=100;rounded=0;startArrow=none;endArrow=block;endFill=1;exitX=0.5;exitY=1.01;exitPerimeter=0;entryX=1.002;entryY=0.5;entryPerimeter=0;lucidId=rJnM1z8SrDxu;" edge="1" parent="1" source="EIdDX-q7qXnu96xB0HQ3-16" target="EIdDX-q7qXnu96xB0HQ3-36">
          <mxGeometry width="100" height="100" relative="1" as="geometry">
            <Array as="points">
              <mxPoint x="766" y="436" />
            </Array>
          </mxGeometry>
        </mxCell>
        <mxCell id="EIdDX-q7qXnu96xB0HQ3-16" value="CIF" style="html=1;overflow=block;blockSpacing=1;whiteSpace=wrap;shape=datastore;fontSize=14.3;fontFamily=Arimo;spacing=0;strokeColor=#d6b656;strokeOpacity=100;fillOpacity=100;rounded=1;absoluteArcSize=1;arcSize=16;shadow=1;fillColor=#fff2cc;lucidId=rJnM87PMIM1b;" vertex="1" parent="1">
          <mxGeometry x="736" y="94" width="60" height="48" as="geometry" />
        </mxCell>
        <mxCell id="EIdDX-q7qXnu96xB0HQ3-17" value="" style="html=1;jettySize=18;whiteSpace=wrap;fontSize=13;strokeOpacity=100;rounded=0;startArrow=none;endArrow=block;endFill=1;exitX=0.5;exitY=1.01;exitPerimeter=0;entryX=1.002;entryY=0.5;entryPerimeter=0;lucidId=rJnMbWgP4Cll;" edge="1" parent="1" source="EIdDX-q7qXnu96xB0HQ3-18" target="EIdDX-q7qXnu96xB0HQ3-40">
          <mxGeometry width="100" height="100" relative="1" as="geometry">
            <Array as="points">
              <mxPoint x="880" y="526" />
            </Array>
          </mxGeometry>
        </mxCell>
        <mxCell id="EIdDX-q7qXnu96xB0HQ3-18" value="CIF" style="html=1;overflow=block;blockSpacing=1;whiteSpace=wrap;shape=datastore;fontSize=14.3;fontFamily=Arimo;spacing=0;strokeColor=#d6b656;strokeOpacity=100;fillOpacity=100;rounded=1;absoluteArcSize=1;arcSize=16;shadow=1;fillColor=#fff2cc;lucidId=rJnMEuyD3lSO;" vertex="1" parent="1">
          <mxGeometry x="850" y="94" width="60" height="48" as="geometry" />
        </mxCell>
        <mxCell id="EIdDX-q7qXnu96xB0HQ3-19" value="" style="html=1;jettySize=18;whiteSpace=wrap;fontSize=13;strokeOpacity=100;rounded=0;startArrow=none;endArrow=block;endFill=1;exitX=0.51;exitY=1.01;exitPerimeter=0;entryX=1.002;entryY=0.5;entryPerimeter=0;lucidId=rJnMju-FmA3.;" edge="1" parent="1" source="EIdDX-q7qXnu96xB0HQ3-20" target="EIdDX-q7qXnu96xB0HQ3-38">
          <mxGeometry width="100" height="100" relative="1" as="geometry">
            <Array as="points">
              <mxPoint x="981" y="604" />
            </Array>
          </mxGeometry>
        </mxCell>
        <mxCell id="EIdDX-q7qXnu96xB0HQ3-20" value="CIF" style="html=1;overflow=block;blockSpacing=1;whiteSpace=wrap;shape=datastore;fontSize=14.3;fontFamily=Arimo;spacing=0;strokeColor=#d6b656;strokeOpacity=100;fillOpacity=100;rounded=1;absoluteArcSize=1;arcSize=16;shadow=1;fillColor=#fff2cc;lucidId=rJnMj6rxDJnO;" vertex="1" parent="1">
          <mxGeometry x="950" y="94" width="60" height="48" as="geometry" />
        </mxCell>
        <mxCell id="EIdDX-q7qXnu96xB0HQ3-21" value="" style="html=1;jettySize=18;whiteSpace=wrap;fontSize=13;strokeOpacity=100;rounded=0;startArrow=none;endArrow=block;endFill=1;exitX=0.5;exitY=1.01;exitPerimeter=0;entryX=1.002;entryY=0.5;entryPerimeter=0;lucidId=rJnMWCMhd3w3;" edge="1" parent="1" source="EIdDX-q7qXnu96xB0HQ3-22" target="EIdDX-q7qXnu96xB0HQ3-44">
          <mxGeometry width="100" height="100" relative="1" as="geometry">
            <Array as="points">
              <mxPoint x="1078" y="676" />
            </Array>
          </mxGeometry>
        </mxCell>
        <mxCell id="EIdDX-q7qXnu96xB0HQ3-22" value="CIF" style="html=1;overflow=block;blockSpacing=1;whiteSpace=wrap;shape=datastore;fontSize=14.3;fontFamily=Arimo;spacing=0;strokeColor=#d6b656;strokeOpacity=100;fillOpacity=100;rounded=1;absoluteArcSize=1;arcSize=16;shadow=1;fillColor=#fff2cc;lucidId=rJnM71qB72gS;" vertex="1" parent="1">
          <mxGeometry x="1048" y="94" width="60" height="48" as="geometry" />
        </mxCell>
        <mxCell id="EIdDX-q7qXnu96xB0HQ3-23" value="" style="html=1;jettySize=18;whiteSpace=wrap;fontSize=13;strokeOpacity=100;rounded=0;startArrow=none;endArrow=block;endFill=1;exitX=0.5;exitY=1.01;exitPerimeter=0;entryX=1.002;entryY=0.5;entryPerimeter=0;lucidId=rJnMNtGR2TW_;" edge="1" parent="1" source="EIdDX-q7qXnu96xB0HQ3-24" target="EIdDX-q7qXnu96xB0HQ3-34">
          <mxGeometry width="100" height="100" relative="1" as="geometry">
            <Array as="points">
              <mxPoint x="1294" y="820" />
            </Array>
          </mxGeometry>
        </mxCell>
        <mxCell id="EIdDX-q7qXnu96xB0HQ3-24" value="CIF" style="html=1;overflow=block;blockSpacing=1;whiteSpace=wrap;shape=datastore;fontSize=14.3;fontFamily=Arimo;spacing=0;strokeColor=#d6b656;strokeOpacity=100;fillOpacity=100;rounded=1;absoluteArcSize=1;arcSize=16;shadow=1;fillColor=#fff2cc;lucidId=rJnMJ6-NKrR9;" vertex="1" parent="1">
          <mxGeometry x="1264" y="94" width="60" height="48" as="geometry" />
        </mxCell>
        <mxCell id="EIdDX-q7qXnu96xB0HQ3-25" value="" style="html=1;jettySize=18;whiteSpace=wrap;fontSize=13;strokeOpacity=100;rounded=0;startArrow=none;endArrow=block;endFill=1;exitX=0.5;exitY=1.01;exitPerimeter=0;entryX=1.002;entryY=0.5;entryPerimeter=0;lucidId=rJnMTvli84Js;" edge="1" parent="1" source="EIdDX-q7qXnu96xB0HQ3-26" target="EIdDX-q7qXnu96xB0HQ3-46">
          <mxGeometry width="100" height="100" relative="1" as="geometry">
            <Array as="points">
              <mxPoint x="1186" y="748" />
            </Array>
          </mxGeometry>
        </mxCell>
        <mxCell id="EIdDX-q7qXnu96xB0HQ3-26" value="CIF" style="html=1;overflow=block;blockSpacing=1;whiteSpace=wrap;shape=datastore;fontSize=14.3;fontFamily=Arimo;spacing=0;strokeColor=#d6b656;strokeOpacity=100;fillOpacity=100;rounded=1;absoluteArcSize=1;arcSize=16;shadow=1;fillColor=#fff2cc;lucidId=rJnMdT.SrN8b;" vertex="1" parent="1">
          <mxGeometry x="1156" y="94" width="60" height="48" as="geometry" />
        </mxCell>
        <mxCell id="EIdDX-q7qXnu96xB0HQ3-58" style="edgeStyle=orthogonalEdgeStyle;rounded=0;orthogonalLoop=1;jettySize=auto;html=1;" edge="1" parent="1" source="EIdDX-q7qXnu96xB0HQ3-28" target="EIdDX-q7qXnu96xB0HQ3-30">
          <mxGeometry relative="1" as="geometry">
            <Array as="points">
              <mxPoint x="550" y="270" />
              <mxPoint x="396" y="270" />
            </Array>
          </mxGeometry>
        </mxCell>
        <mxCell id="EIdDX-q7qXnu96xB0HQ3-28" value="CIF" style="html=1;overflow=block;blockSpacing=1;whiteSpace=wrap;shape=datastore;fontSize=14.3;fontFamily=Arimo;spacing=0;strokeColor=#d6b656;strokeOpacity=100;fillOpacity=100;rounded=1;absoluteArcSize=1;arcSize=16;shadow=1;fillColor=#fff2cc;lucidId=rJnMx0axmlwM;" vertex="1" parent="1">
          <mxGeometry x="520" y="94" width="60" height="48" as="geometry" />
        </mxCell>
        <mxCell id="EIdDX-q7qXnu96xB0HQ3-29" value="" style="html=1;jettySize=18;whiteSpace=wrap;fontSize=13;strokeOpacity=100;rounded=0;startArrow=none;endArrow=block;endFill=1;exitX=-0.002;exitY=0.5;exitPerimeter=0;entryX=1.004;entryY=0.5;entryPerimeter=0;lucidId=rJnMJFn3JJAx;" edge="1" parent="1" source="EIdDX-q7qXnu96xB0HQ3-30" target="EIdDX-q7qXnu96xB0HQ3-49">
          <mxGeometry width="100" height="100" relative="1" as="geometry">
            <Array as="points">
              <mxPoint x="143" y="304" />
              <mxPoint x="143" y="273" />
            </Array>
          </mxGeometry>
        </mxCell>
        <mxCell id="EIdDX-q7qXnu96xB0HQ3-30" value="&lt;font face=&quot;Helvetica&quot; style=&quot;font-size: 24px;&quot;&gt;//ddww07.nl.docdata.com/user (disable)&lt;/font&gt;" style="html=1;overflow=block;blockSpacing=1;whiteSpace=wrap;fontSize=14.3;fontFamily=Arimo;spacing=0;strokeColor=#d6b656;strokeOpacity=100;fillOpacity=100;rounded=1;absoluteArcSize=1;arcSize=16;shadow=1;fillColor=#fff2cc;lucidId=rJnM1AG_Rs33;" vertex="1" parent="1">
          <mxGeometry x="172" y="286" width="472" height="36" as="geometry" />
        </mxCell>
        <mxCell id="EIdDX-q7qXnu96xB0HQ3-31" value="" style="html=1;jettySize=18;whiteSpace=wrap;fontSize=13;strokeOpacity=100;rounded=0;startArrow=none;endArrow=block;endFill=1;exitX=-0.002;exitY=0.5;exitPerimeter=0;entryX=1.004;entryY=0.5;entryPerimeter=0;lucidId=rJnMDGryv6xJ;" edge="1" parent="1" source="EIdDX-q7qXnu96xB0HQ3-32" target="EIdDX-q7qXnu96xB0HQ3-50">
          <mxGeometry width="100" height="100" relative="1" as="geometry">
            <Array as="points">
              <mxPoint x="143" y="364" />
              <mxPoint x="143" y="365" />
            </Array>
          </mxGeometry>
        </mxCell>
        <mxCell id="EIdDX-q7qXnu96xB0HQ3-32" value="&lt;font style=&quot;font-size: 24px;&quot; face=&quot;Helvetica&quot;&gt;//ddfsv101.nl.docdata.com/department&lt;/font&gt;" style="html=1;overflow=block;blockSpacing=1;whiteSpace=wrap;fontSize=14.3;fontFamily=Arimo;spacing=0;strokeColor=#d6b656;strokeOpacity=100;fillOpacity=100;rounded=1;absoluteArcSize=1;arcSize=16;shadow=1;fillColor=#fff2cc;lucidId=rJnMnSXNXPiP;" vertex="1" parent="1">
          <mxGeometry x="172" y="346" width="474" height="36" as="geometry" />
        </mxCell>
        <mxCell id="EIdDX-q7qXnu96xB0HQ3-33" value="" style="html=1;jettySize=18;whiteSpace=wrap;fontSize=13;strokeOpacity=100;rounded=0;startArrow=none;endArrow=block;endFill=1;exitX=-0.002;exitY=0.5;exitPerimeter=0;entryX=1.003;entryY=0.5;entryPerimeter=0;lucidId=rJnM3cYw0r5L;" edge="1" parent="1" source="EIdDX-q7qXnu96xB0HQ3-34" target="EIdDX-q7qXnu96xB0HQ3-56">
          <mxGeometry width="100" height="100" relative="1" as="geometry">
            <Array as="points" />
          </mxGeometry>
        </mxCell>
        <mxCell id="EIdDX-q7qXnu96xB0HQ3-34" value="&lt;font style=&quot;font-size: 24px;&quot; face=&quot;Helvetica&quot;&gt;//ddfsv101/smart_print/nl/prod/MFT&lt;/font&gt;" style="html=1;overflow=block;blockSpacing=1;whiteSpace=wrap;fontSize=14.3;fontFamily=Arimo;spacing=0;strokeColor=#d6b656;strokeOpacity=100;fillOpacity=100;rounded=1;absoluteArcSize=1;arcSize=16;shadow=1;fillColor=#fff2cc;lucidId=rJnMGndNG~ui;" vertex="1" parent="1">
          <mxGeometry x="172" y="802" width="479" height="36" as="geometry" />
        </mxCell>
        <mxCell id="EIdDX-q7qXnu96xB0HQ3-35" value="" style="html=1;jettySize=18;whiteSpace=wrap;fontSize=13;strokeOpacity=100;rounded=0;startArrow=none;endArrow=block;endFill=1;exitX=-0.002;exitY=0.5;exitPerimeter=0;entryX=1.003;entryY=0.5;entryPerimeter=0;lucidId=rJnMHrY2dIs3;" edge="1" parent="1" source="EIdDX-q7qXnu96xB0HQ3-36" target="EIdDX-q7qXnu96xB0HQ3-51">
          <mxGeometry width="100" height="100" relative="1" as="geometry">
            <Array as="points" />
          </mxGeometry>
        </mxCell>
        <mxCell id="EIdDX-q7qXnu96xB0HQ3-36" value="&lt;div style=&quot;display: flex; justify-content: center; text-align: center; align-items: baseline; line-height: 1.25; margin-top: -2px;&quot;&gt;&lt;font style=&quot;&quot; face=&quot;Helvetica&quot;&gt;&lt;font style=&quot;font-size: 24px;&quot;&gt;//nltiwprt1002.corporate.ingrammicro.com&lt;br&gt;&lt;/font&gt;&lt;/font&gt;&lt;/div&gt;&lt;div style=&quot;display: flex; justify-content: center; text-align: center; align-items: baseline; line-height: 1.25; margin-top: -2px;&quot;&gt;&lt;font style=&quot;font-size: 24px;&quot;&gt;&lt;font face=&quot;Helvetica&quot;&gt;/Neopost/4-Smartlink/outgoing&lt;/font&gt;&lt;/font&gt;&lt;/div&gt;" style="html=1;overflow=block;blockSpacing=1;whiteSpace=wrap;fontSize=13;fontFamily=Arimo;spacing=0;strokeColor=#d6b656;strokeOpacity=100;fillOpacity=100;rounded=1;absoluteArcSize=1;arcSize=16;shadow=1;fillColor=#fff2cc;lucidId=rJnMz5imwM.p;" vertex="1" parent="1">
          <mxGeometry x="172" y="406" width="491" height="60" as="geometry" />
        </mxCell>
        <mxCell id="EIdDX-q7qXnu96xB0HQ3-37" value="" style="html=1;jettySize=18;whiteSpace=wrap;fontSize=13;strokeOpacity=100;rounded=0;startArrow=none;endArrow=block;endFill=1;exitX=-0.002;exitY=0.5;exitPerimeter=0;entryX=1.003;entryY=0.5;entryPerimeter=0;lucidId=rJnM1PO8Deel;" edge="1" parent="1" source="EIdDX-q7qXnu96xB0HQ3-38" target="EIdDX-q7qXnu96xB0HQ3-53">
          <mxGeometry width="100" height="100" relative="1" as="geometry">
            <Array as="points">
              <mxPoint x="142" y="604" />
              <mxPoint x="142" y="605" />
            </Array>
          </mxGeometry>
        </mxCell>
        <mxCell id="EIdDX-q7qXnu96xB0HQ3-38" value="&lt;font style=&quot;font-size: 24px;&quot; face=&quot;Helvetica&quot;&gt;//10.20.0.30/shares/Gruppen/EH2&lt;/font&gt;" style="html=1;overflow=block;blockSpacing=1;whiteSpace=wrap;fontSize=14.3;fontFamily=Arimo;spacing=0;strokeColor=#d6b656;strokeOpacity=100;fillOpacity=100;rounded=1;absoluteArcSize=1;arcSize=16;shadow=1;fillColor=#fff2cc;lucidId=rJnMGu3_pxg1;" vertex="1" parent="1">
          <mxGeometry x="172" y="586" width="487" height="36" as="geometry" />
        </mxCell>
        <mxCell id="EIdDX-q7qXnu96xB0HQ3-39" value="" style="html=1;jettySize=18;whiteSpace=wrap;fontSize=13;strokeOpacity=100;rounded=0;startArrow=none;endArrow=block;endFill=1;exitX=-0.002;exitY=0.5;exitPerimeter=0;entryX=1.003;entryY=0.5;entryPerimeter=0;lucidId=rJnM~HfkF94t;" edge="1" parent="1" source="EIdDX-q7qXnu96xB0HQ3-40" target="EIdDX-q7qXnu96xB0HQ3-52">
          <mxGeometry width="100" height="100" relative="1" as="geometry">
            <Array as="points">
              <mxPoint x="142" y="526" />
              <mxPoint x="142" y="525" />
            </Array>
          </mxGeometry>
        </mxCell>
        <mxCell id="EIdDX-q7qXnu96xB0HQ3-40" value="&lt;font style=&quot;font-size: 24px;&quot; face=&quot;Helvetica&quot;&gt;//creeper.dfg.global.intra/Gruppen/Reports (disable)&lt;/font&gt;" style="html=1;overflow=block;blockSpacing=1;whiteSpace=wrap;fontSize=14.3;fontFamily=Arimo;spacing=0;strokeColor=#d6b656;strokeOpacity=100;fillOpacity=100;rounded=1;absoluteArcSize=1;arcSize=16;shadow=1;fillColor=#fff2cc;lucidId=rJnMVuLfIfO3;" vertex="1" parent="1">
          <mxGeometry x="172" y="496" width="487" height="60" as="geometry" />
        </mxCell>
        <mxCell id="EIdDX-q7qXnu96xB0HQ3-41" value="" style="html=1;jettySize=18;whiteSpace=wrap;fontSize=13;strokeOpacity=100;rounded=0;startArrow=none;endArrow=block;endFill=1;exitX=-0.002;exitY=0.5;exitPerimeter=0;entryX=1.004;entryY=0.5;entryPerimeter=0;lucidId=rJnMcPL5b2jo;" edge="1" parent="1" source="EIdDX-q7qXnu96xB0HQ3-42" target="EIdDX-q7qXnu96xB0HQ3-49">
          <mxGeometry width="100" height="100" relative="1" as="geometry">
            <Array as="points">
              <mxPoint x="143" y="244" />
              <mxPoint x="143" y="273" />
            </Array>
          </mxGeometry>
        </mxCell>
        <mxCell id="EIdDX-q7qXnu96xB0HQ3-42" value="&lt;font style=&quot;font-size: 24px;&quot; face=&quot;Helvetica&quot;&gt;192.168.110.107:/user&lt;/font&gt;" style="html=1;overflow=block;blockSpacing=1;whiteSpace=wrap;fontSize=14.3;fontFamily=Arimo;spacing=0;strokeColor=#6c8ebf;strokeOpacity=100;fillOpacity=100;rounded=1;absoluteArcSize=1;arcSize=16;shadow=1;fillColor=#dae8fc;lucidId=rJnMOC-K4cY2;" vertex="1" parent="1">
          <mxGeometry x="172" y="226" width="288" height="36" as="geometry" />
        </mxCell>
        <mxCell id="EIdDX-q7qXnu96xB0HQ3-43" value="" style="html=1;jettySize=18;whiteSpace=wrap;fontSize=13;strokeOpacity=100;rounded=0;startArrow=none;endArrow=block;endFill=1;exitX=-0.002;exitY=0.5;exitPerimeter=0;entryX=1.003;entryY=0.5;entryPerimeter=0;lucidId=rJnMu2YnabnA;" edge="1" parent="1" source="EIdDX-q7qXnu96xB0HQ3-44" target="EIdDX-q7qXnu96xB0HQ3-54">
          <mxGeometry width="100" height="100" relative="1" as="geometry">
            <Array as="points" />
          </mxGeometry>
        </mxCell>
        <mxCell id="EIdDX-q7qXnu96xB0HQ3-44" value="&lt;font style=&quot;font-size: 24px;&quot; face=&quot;Helvetica&quot;&gt;//10.20.0.30/nl_reports&lt;/font&gt;" style="html=1;overflow=block;blockSpacing=1;whiteSpace=wrap;fontSize=14.3;fontFamily=Arimo;spacing=0;strokeColor=#d6b656;strokeOpacity=100;fillOpacity=100;rounded=1;absoluteArcSize=1;arcSize=16;shadow=1;fillColor=#fff2cc;lucidId=rJnMq83wxzl0;" vertex="1" parent="1">
          <mxGeometry x="172" y="658" width="481" height="36" as="geometry" />
        </mxCell>
        <mxCell id="EIdDX-q7qXnu96xB0HQ3-45" value="" style="html=1;jettySize=18;whiteSpace=wrap;fontSize=13;strokeOpacity=100;rounded=0;startArrow=none;endArrow=block;endFill=1;exitX=-0.002;exitY=0.5;exitPerimeter=0;entryX=1.003;entryY=0.5;entryPerimeter=0;lucidId=rJnM04EDZrgr;" edge="1" parent="1" source="EIdDX-q7qXnu96xB0HQ3-46" target="EIdDX-q7qXnu96xB0HQ3-55">
          <mxGeometry width="100" height="100" relative="1" as="geometry">
            <Array as="points">
              <mxPoint x="143" y="748" />
              <mxPoint x="143" y="749" />
            </Array>
          </mxGeometry>
        </mxCell>
        <mxCell id="EIdDX-q7qXnu96xB0HQ3-46" value="&lt;font style=&quot;font-size: 24px;&quot; face=&quot;Helvetica&quot;&gt;//10.16.32.11/Goleniow/BestsellerDWHInput&lt;/font&gt;" style="html=1;overflow=block;blockSpacing=1;whiteSpace=wrap;fontSize=14.3;fontFamily=Arimo;spacing=0;strokeColor=#d6b656;strokeOpacity=100;fillOpacity=100;rounded=1;absoluteArcSize=1;arcSize=16;shadow=1;fillColor=#fff2cc;lucidId=rJnMIkbYLP89;" vertex="1" parent="1">
          <mxGeometry x="172" y="730" width="484" height="36" as="geometry" />
        </mxCell>
        <mxCell id="EIdDX-q7qXnu96xB0HQ3-47" value="" style="html=1;overflow=block;blockSpacing=1;whiteSpace=wrap;fontSize=14.3;fontFamily=Arimo;fontColor=default;spacing=0;strokeOpacity=0;fillOpacity=100;rounded=1;absoluteArcSize=1;arcSize=16;shadow=1;fillColor=#ff0000;lucidId=rJnM2c~BFAei;" vertex="1" parent="1">
          <mxGeometry x="621" y="294.5" width="19" height="19" as="geometry" />
        </mxCell>
        <mxCell id="EIdDX-q7qXnu96xB0HQ3-49" value="&lt;font style=&quot;font-size: 24px;&quot; face=&quot;Helvetica&quot;&gt;/mnt/smartlink-nl&lt;/font&gt;" style="html=1;overflow=block;blockSpacing=1;whiteSpace=wrap;fontSize=14.3;fontFamily=Arimo;align=center;spacing=0;strokeOpacity=100;fillOpacity=100;rounded=1;absoluteArcSize=1;arcSize=16;shadow=1;fillColor=#ffffff;lucidId=rJnMvDx7N_Tk;" vertex="1" parent="1">
          <mxGeometry x="-79" y="250" width="192" height="46" as="geometry" />
        </mxCell>
        <mxCell id="EIdDX-q7qXnu96xB0HQ3-50" value="&lt;font style=&quot;font-size: 24px;&quot; face=&quot;Helvetica&quot;&gt;/mnt/ddfsv101&lt;/font&gt;" style="html=1;overflow=block;blockSpacing=1;whiteSpace=wrap;fontSize=14.3;fontFamily=Arimo;align=center;spacing=0;strokeOpacity=100;fillOpacity=100;rounded=1;absoluteArcSize=1;arcSize=16;shadow=1;fillColor=#ffffff;lucidId=rJnM~KIdcOGL;" vertex="1" parent="1">
          <mxGeometry x="-75" y="341" width="188" height="46" as="geometry" />
        </mxCell>
        <mxCell id="EIdDX-q7qXnu96xB0HQ3-51" value="&lt;font style=&quot;font-size: 24px;&quot; face=&quot;Helvetica&quot;&gt;/mnt/ddnas101SmartPrint&lt;/font&gt;" style="html=1;overflow=block;blockSpacing=1;whiteSpace=wrap;fontSize=14.3;fontFamily=Arimo;align=center;spacing=0;strokeOpacity=100;fillOpacity=100;rounded=1;absoluteArcSize=1;arcSize=16;shadow=1;fillColor=#ffffff;lucidId=rJnMVtw6lq0k;" vertex="1" parent="1">
          <mxGeometry x="-162" y="413" width="276" height="46" as="geometry" />
        </mxCell>
        <mxCell id="EIdDX-q7qXnu96xB0HQ3-52" value="&lt;font style=&quot;font-size: 24px;&quot; face=&quot;Helvetica&quot;&gt;/mnt/nltiwprt1002&lt;/font&gt;" style="html=1;overflow=block;blockSpacing=1;whiteSpace=wrap;fontSize=14.3;fontFamily=Arimo;align=center;spacing=0;strokeOpacity=100;fillOpacity=100;rounded=1;absoluteArcSize=1;arcSize=16;shadow=1;fillColor=#ffffff;lucidId=rJnMhfSTS8DU;" vertex="1" parent="1">
          <mxGeometry x="-161" y="502" width="273" height="46" as="geometry" />
        </mxCell>
        <mxCell id="EIdDX-q7qXnu96xB0HQ3-53" value="&lt;font style=&quot;font-size: 24px;&quot; face=&quot;Helvetica&quot;&gt;/mnt/voyager&lt;/font&gt;" style="html=1;overflow=block;blockSpacing=1;whiteSpace=wrap;fontSize=14.3;fontFamily=Arimo;align=center;spacing=0;strokeOpacity=100;fillOpacity=100;rounded=1;absoluteArcSize=1;arcSize=16;shadow=1;fillColor=#ffffff;lucidId=rJnMFUFoTfSj;" vertex="1" parent="1">
          <mxGeometry x="-160" y="583" width="272" height="46" as="geometry" />
        </mxCell>
        <mxCell id="EIdDX-q7qXnu96xB0HQ3-54" value="&lt;font style=&quot;font-size: 24px;&quot; face=&quot;Helvetica&quot;&gt;/mnt/eurohub2&lt;/font&gt;" style="html=1;overflow=block;blockSpacing=1;whiteSpace=wrap;fontSize=14.3;fontFamily=Arimo;align=center;spacing=0;strokeOpacity=100;fillOpacity=100;rounded=1;absoluteArcSize=1;arcSize=16;shadow=1;fillColor=#ffffff;lucidId=rJnM4dYOPQJ.;" vertex="1" parent="1">
          <mxGeometry x="-162" y="653" width="275" height="46" as="geometry" />
        </mxCell>
        <mxCell id="EIdDX-q7qXnu96xB0HQ3-55" value="&lt;font style=&quot;font-size: 24px;&quot; face=&quot;Helvetica&quot;&gt;/mnt/EH2-W12-FSRV01&lt;/font&gt;" style="html=1;overflow=block;blockSpacing=1;whiteSpace=wrap;fontSize=14.3;fontFamily=Arimo;align=center;spacing=0;strokeOpacity=100;fillOpacity=100;rounded=1;absoluteArcSize=1;arcSize=16;shadow=1;fillColor=#ffffff;lucidId=rJnMfP6E89_n;" vertex="1" parent="1">
          <mxGeometry x="-161" y="725" width="274" height="46" as="geometry" />
        </mxCell>
        <mxCell id="EIdDX-q7qXnu96xB0HQ3-56" value="&lt;font style=&quot;font-size: 24px;&quot; face=&quot;Helvetica&quot;&gt;mnt/goleniow&lt;/font&gt;" style="html=1;overflow=block;blockSpacing=1;whiteSpace=wrap;fontSize=14.3;fontFamily=Arimo;align=center;spacing=0;strokeOpacity=100;fillOpacity=100;rounded=1;absoluteArcSize=1;arcSize=16;shadow=1;fillColor=#ffffff;lucidId=rJnMZx604Xga;" vertex="1" parent="1">
          <mxGeometry x="-162" y="797" width="274" height="46" as="geometry" />
        </mxCell>
        <mxCell id="EIdDX-q7qXnu96xB0HQ3-57" value="" style="html=1;jettySize=18;whiteSpace=wrap;fontSize=13;strokeOpacity=100;rounded=0;startArrow=none;endArrow=none;lucidId=rJnMJlVX1tBR;" edge="1" parent="1">
          <mxGeometry width="100" height="100" relative="1" as="geometry">
            <Array as="points">
              <mxPoint x="48" y="915" />
              <mxPoint x="48" y="915" />
            </Array>
            <mxPoint x="48" y="915" as="sourcePoint" />
            <mxPoint x="47" y="915" as="targetPoint" />
          </mxGeometry>
        </mxCell>
        <mxCell id="EIdDX-q7qXnu96xB0HQ3-60" value="" style="html=1;overflow=block;blockSpacing=1;whiteSpace=wrap;fontSize=14.3;fontFamily=Arimo;fontColor=default;spacing=0;strokeOpacity=0;fillOpacity=100;rounded=1;absoluteArcSize=1;arcSize=16;shadow=1;fillColor=#ff0000;lucidId=rJnM2c~BFAei;" vertex="1" parent="1">
          <mxGeometry x="462" y="530.5" width="19" height="19" as="geometry" />
        </mxCell>
      </root>
    </mxGraphModel>
  </diagram>
</mxfile>
